<?xml version="1.0" encoding="utf-8"?>
<!-- Generator: Adobe Illustrator 16.0.0, SVG Export Plug-In . SVG Version: 6.00 Build 0)  -->
<!DOCTYPE svg PUBLIC "-//W3C//DTD SVG 1.1//EN" "http://www.w3.org/Graphics/SVG/1.1/DTD/svg11.dtd">
<svg version="1.1" id="Layer_1" xmlns="http://www.w3.org/2000/svg" xmlns:xlink="http://www.w3.org/1999/xlink" x="0px" y="0px"
	 width="104px" height="28px" viewBox="0 0 104 28" enable-background="new 0 0 104 28" xml:space="preserve">
<g>
	<defs>
		<path id="SVGID_1_" d="M7.156,10.679c0,2.31,0,4.622,0,6.979c0.222,0.021,0.396,0.055,0.572,0.061
			c1.418,0.045,1.417,0.041,1.417,1.5c-0.003,0.67,0.034,1.344-0.022,2.008c-0.019,0.225-0.277,0.609-0.43,0.609
			C5.813,21.873,2.937,21.865,0,21.865c0-1.398,0-2.693,0-4.105c0.544-0.021,1.104-0.057,1.801-0.09c0-0.676,0-1.332,0-1.982
			c0-1.855,0.005-3.709-0.001-5.563C1.795,8.787,1.956,8.866,0.607,8.862c-0.179,0-0.356-0.024-0.599-0.041c0-1.34,0-2.653,0-4.021
			c0.3-0.017,0.566-0.044,0.833-0.044c3.707-0.003,7.417,0.017,11.124-0.017c0.631-0.006,0.9,0.188,1.076,0.792
			c0.351,1.21,0.8,2.393,1.304,3.867c0.512-1.354,0.987-2.437,1.325-3.561c0.264-0.881,0.725-1.128,1.632-1.109
			c2.946,0.068,5.896,0.027,8.842,0.027c0.328,0,0.655,0,1.033,0c0,1.396,0,2.685,0,4.052c-0.573,0.037-1.132,0.071-1.752,0.108
			c0,2.912,0,5.783,0,8.742c0.559,0.037,1.115,0.074,1.741,0.115c0,1.348,0,2.654,0,4.025c-0.295,0.023-0.558,0.062-0.822,0.062
			c-3.071,0.008-6.14-0.018-9.209,0.021c-0.721,0.012-0.967-0.229-0.919-0.941c0.053-0.787,0.056-1.582,0-2.367
			c-0.052-0.705,0.228-0.961,0.887-0.855c0.872,0.146,1.084-0.254,1.061-1.066c-0.051-1.791-0.012-3.585-0.015-5.376
			c-0.004-0.252-0.042-0.501-0.062-0.75c-0.084-0.017-0.168-0.029-0.249-0.041c-0.109,0.382-0.207,0.768-0.328,1.146
			c-0.777,2.421-1.567,4.836-2.332,7.27c-0.228,0.719-0.386,1.459-0.581,2.188c-0.047,0.174-0.093,0.482-0.172,0.498
			c-0.902,0.119-1.809,0.246-2.716,0.252c-0.24,0-0.611-0.354-0.703-0.617c-1.034-2.975-2.026-5.965-3.034-8.949
			c-0.188-0.558-0.416-1.096-0.627-1.642C7.283,10.646,7.218,10.663,7.156,10.679z"/>
	</defs>
	<clipPath id="SVGID_2_">
		<use xlink:href="#SVGID_1_"  overflow="visible"/>
	</clipPath>
	
		<linearGradient id="SVGID_3_" gradientUnits="userSpaceOnUse" x1="-216.208" y1="104.9961" x2="-111.791" y2="104.9961" gradientTransform="matrix(1 0 0 -1 216 119)">
		<stop  offset="0" style="stop-color:#D8FF6E"/>
		<stop  offset="0.2094" style="stop-color:#78E9D8"/>
		<stop  offset="0.4906" style="stop-color:#1635EF"/>
		<stop  offset="0.7327" style="stop-color:#AD1EE2"/>
		<stop  offset="1" style="stop-color:#F61F1C"/>
	</linearGradient>
	<rect x="-0.208" y="-0.108" clip-path="url(#SVGID_2_)" fill="url(#SVGID_3_)" width="104.417" height="28.226"/>
</g>
<g>
	<defs>
		<path id="SVGID_4_" d="M71.604,6.884c0-0.662,0-1.324,0-2.057c1.508,0,2.944,0,4.453,0c0,2.572,0,5.14,0,7.774
			c-1.557,0-3.117,0-4.681,0c-0.158-0.759-0.256-1.538-0.487-2.276c-0.361-1.141-1.129-1.692-2.197-1.709
			c-1.164-0.021-2.045,0.471-2.396,1.586c-0.696,2.192-0.723,4.423,0.099,6.595c0.436,1.145,1.457,1.67,2.623,1.539
			c1.316-0.148,1.987-0.762,2.25-2.104c0.101-0.506,0.133-1.021,0.205-1.604c1.49,0,2.991,0,4.494,0
			c0.586,2.484-0.941,5.4-3.426,6.574c-2.191,1.035-4.518,1.166-6.855,0.859c-1.183-0.148-2.387-0.484-3.469-0.982
			c-2.771-1.281-4.037-3.645-4.271-6.602c-0.172-2.218,0.096-4.358,1.285-6.312c1.861-3.059,6.004-4.611,9.369-3.376
			c0.815,0.3,1.483,1.006,2.199,1.552c0.227,0.171,0.389,0.424,0.578,0.639C71.455,6.953,71.527,6.919,71.604,6.884z"/>
	</defs>
	<clipPath id="SVGID_5_">
		<use xlink:href="#SVGID_4_"  overflow="visible"/>
	</clipPath>
	
		<linearGradient id="SVGID_6_" gradientUnits="userSpaceOnUse" x1="-216.208" y1="104.9961" x2="-111.791" y2="104.9961" gradientTransform="matrix(1 0 0 -1 216 119)">
		<stop  offset="0" style="stop-color:#D8FF6E"/>
		<stop  offset="0.2094" style="stop-color:#78E9D8"/>
		<stop  offset="0.4906" style="stop-color:#1635EF"/>
		<stop  offset="0.7327" style="stop-color:#AD1EE2"/>
		<stop  offset="1" style="stop-color:#F61F1C"/>
	</linearGradient>
	<rect x="-0.208" y="-0.108" clip-path="url(#SVGID_5_)" fill="url(#SVGID_6_)" width="104.417" height="28.226"/>
</g>
<g>
	<defs>
		<path id="SVGID_7_" d="M104,17.777c0,1.367,0,2.639,0,4.004c-3.732,0-7.439,0-11.205,0c0-1.338,0-2.631,0-4.021
			c0.465-0.021,0.905-0.045,1.348-0.068c0.147-0.932-0.266-2.025-0.795-2.104c-2.396-0.34-2.709-0.143-3.134,2.012
			c0.128,0.037,0.259,0.104,0.394,0.113c1.312,0.074,1.312,0.07,1.312,1.428c0,0.873,0,1.746,0,2.678c-2.607,0-5.093,0-7.646,0
			c0-1.346,0-2.656,0-4.104c1.685,0.521,1.729-0.814,2.062-1.801c1.178-3.473,2.342-6.948,3.477-10.433
			C90,4.908,90.271,4.737,90.848,4.748c2.033,0.03,4.071,0.041,6.107-0.007c0.645-0.015,0.879,0.222,1.062,0.802
			c1.174,3.662,2.418,7.301,3.551,10.975c0.302,0.963,0.731,1.375,1.722,1.215C103.482,17.695,103.697,17.754,104,17.777z
			 M93.29,13.695c-0.351-1.191-0.653-2.231-0.962-3.274c-0.071,0.003-0.146,0.007-0.221,0.01c-0.297,1.071-0.598,2.143-0.907,3.265
			C91.939,13.695,92.533,13.695,93.29,13.695z"/>
	</defs>
	<clipPath id="SVGID_8_">
		<use xlink:href="#SVGID_7_"  overflow="visible"/>
	</clipPath>
	
		<linearGradient id="SVGID_9_" gradientUnits="userSpaceOnUse" x1="-216.208" y1="104.9961" x2="-111.791" y2="104.9961" gradientTransform="matrix(1 0 0 -1 216 119)">
		<stop  offset="0" style="stop-color:#D8FF6E"/>
		<stop  offset="0.2094" style="stop-color:#78E9D8"/>
		<stop  offset="0.4906" style="stop-color:#1635EF"/>
		<stop  offset="0.7327" style="stop-color:#AD1EE2"/>
		<stop  offset="1" style="stop-color:#F61F1C"/>
	</linearGradient>
	<rect x="-0.208" y="-0.108" clip-path="url(#SVGID_8_)" fill="url(#SVGID_9_)" width="104.417" height="28.226"/>
</g>
<g>
	<defs>
		<path id="SVGID_10_" d="M37.359,21.781c0-1.357,0-2.65,0-4.021c0.581-0.023,1.116-0.051,1.733-0.082c0-2.9,0-5.795,0-8.771
			C38.535,8.882,38,8.858,37.387,8.832c0-1.33,0-2.645,0-4.018c3.704,0,7.394,0,11.131,0c0,1.332,0,2.626,0,3.928
			c-0.092,0.041-0.17,0.1-0.252,0.104c-1.572,0.104-1.574,0.104-1.575,1.729c0,2.333,0,4.667,0,7.085
			c0.65,0.035,1.207,0.062,1.821,0.102c0,1.342,0,2.635,0,4.021C44.832,21.781,41.147,21.781,37.359,21.781z"/>
	</defs>
	<clipPath id="SVGID_11_">
		<use xlink:href="#SVGID_10_"  overflow="visible"/>
	</clipPath>
	
		<linearGradient id="SVGID_12_" gradientUnits="userSpaceOnUse" x1="-216.208" y1="104.9961" x2="-111.791" y2="104.9961" gradientTransform="matrix(1 0 0 -1 216 119)">
		<stop  offset="0" style="stop-color:#D8FF6E"/>
		<stop  offset="0.2094" style="stop-color:#78E9D8"/>
		<stop  offset="0.4906" style="stop-color:#1635EF"/>
		<stop  offset="0.7327" style="stop-color:#AD1EE2"/>
		<stop  offset="1" style="stop-color:#F61F1C"/>
	</linearGradient>
	<rect x="-0.208" y="-0.108" clip-path="url(#SVGID_11_)" fill="url(#SVGID_12_)" width="104.417" height="28.226"/>
</g>
<g>
	<defs>
		
			<rect id="SVGID_13_" x="80.76" y="-0.814" transform="matrix(0.9498 0.3127 -0.3127 0.9498 8.4533 -24.7084)" width="0.999" height="29.63"/>
	</defs>
	<clipPath id="SVGID_14_">
		<use xlink:href="#SVGID_13_"  overflow="visible"/>
	</clipPath>
	
		<linearGradient id="SVGID_15_" gradientUnits="userSpaceOnUse" x1="-216.208" y1="104.9961" x2="-111.791" y2="104.9961" gradientTransform="matrix(1 0 0 -1 216 119)">
		<stop  offset="0" style="stop-color:#D8FF6E"/>
		<stop  offset="0.2094" style="stop-color:#78E9D8"/>
		<stop  offset="0.4906" style="stop-color:#1635EF"/>
		<stop  offset="0.7327" style="stop-color:#AD1EE2"/>
		<stop  offset="1" style="stop-color:#F61F1C"/>
	</linearGradient>
	<rect x="-0.208" y="-0.108" clip-path="url(#SVGID_14_)" fill="url(#SVGID_15_)" width="104.417" height="28.226"/>
</g>
<g>
	<defs>
		<rect id="SVGID_16_" x="31" y="0.003" width="1" height="28.001"/>
	</defs>
	<clipPath id="SVGID_17_">
		<use xlink:href="#SVGID_16_"  overflow="visible"/>
	</clipPath>
	
		<linearGradient id="SVGID_18_" gradientUnits="userSpaceOnUse" x1="-216" y1="105" x2="-111.583" y2="105" gradientTransform="matrix(1 0 0 -1 216 119)">
		<stop  offset="0" style="stop-color:#D8FF6E"/>
		<stop  offset="0.2094" style="stop-color:#78E9D8"/>
		<stop  offset="0.4906" style="stop-color:#1635EF"/>
		<stop  offset="0.7327" style="stop-color:#AD1EE2"/>
		<stop  offset="1" style="stop-color:#F61F1C"/>
	</linearGradient>
	<rect y="-0.112" clip-path="url(#SVGID_17_)" fill="url(#SVGID_18_)" width="104.417" height="28.226"/>
</g>
<g>
	<defs>
		<rect id="SVGID_19_" x="54" y="0.003" width="1" height="28.001"/>
	</defs>
	<clipPath id="SVGID_20_">
		<use xlink:href="#SVGID_19_"  overflow="visible"/>
	</clipPath>
	
		<linearGradient id="SVGID_21_" gradientUnits="userSpaceOnUse" x1="-216" y1="105" x2="-111.583" y2="105" gradientTransform="matrix(1 0 0 -1 216 119)">
		<stop  offset="0" style="stop-color:#D8FF6E"/>
		<stop  offset="0.2094" style="stop-color:#78E9D8"/>
		<stop  offset="0.4906" style="stop-color:#1635EF"/>
		<stop  offset="0.7327" style="stop-color:#AD1EE2"/>
		<stop  offset="1" style="stop-color:#F61F1C"/>
	</linearGradient>
	<rect y="-0.112" clip-path="url(#SVGID_20_)" fill="url(#SVGID_21_)" width="104.417" height="28.226"/>
</g>
</svg>
